<svg width="319" height="81" viewBox="0 0 319 81" fill="none" xmlns="http://www.w3.org/2000/svg">
<path d="M16.328 80.304C15.6453 80.304 15.304 79.9627 15.304 79.28C15.304 79.28 15.304 79.2373 15.304 79.152C15.304 79.152 15.3467 79.1093 15.432 79.024C16.1147 77.5733 16.584 76.1227 16.84 74.672C17.096 73.136 17.2667 71.472 17.352 69.68C17.5227 68.912 17.9067 68.5707 18.504 68.656C18.6747 67.2907 19.1013 64.944 19.784 61.616C20.4667 58.288 21.2347 54.4053 22.088 49.968C23.0267 45.4453 23.9653 40.752 24.904 35.888C25.928 31.024 26.8667 26.416 27.72 22.064C28.5733 17.6267 29.256 13.8293 29.768 10.672C30.28 7.51466 30.536 5.424 30.536 4.39999C30.1093 4.144 29 3.97333 27.208 3.88799C25.416 3.80266 23.368 3.75999 21.064 3.75999C18.504 3.75999 15.8587 3.80266 13.128 3.88799C10.3973 3.97333 7.92267 4.05866 5.704 4.144C3.57067 4.144 2.03467 4.144 1.096 4.144C0.413333 4.144 0.072 3.80266 0.072 3.12C0.072 2.096 0.754667 1.456 2.12 1.2C3.48533 0.858663 4.46667 0.64533 5.064 0.559998C6.344 0.474665 8.34933 0.431999 11.08 0.431999C13.8107 0.346662 16.7973 0.303993 20.04 0.303993C23.2827 0.218661 26.312 0.175995 29.128 0.175995C32.0293 0.175995 34.2053 0.175995 35.656 0.175995H64.328C65.0107 0.175995 65.352 0.431994 65.352 0.943993C65.352 1.71199 64.8827 2.35199 63.944 2.864C63.0907 3.29066 62.3653 3.54666 61.768 3.632C61.1707 3.71733 60.3173 3.80266 59.208 3.88799C58.184 3.97333 57.0747 4.016 55.88 4.016C54.1733 4.016 52.168 3.97333 49.864 3.88799C47.56 3.80266 45.4267 3.75999 43.464 3.75999C42.0133 3.75999 40.7333 3.80266 39.624 3.88799C38.6 3.97333 37.8747 4.144 37.448 4.39999C36.7653 7.13066 35.9547 10.544 35.016 14.64C34.0773 18.736 33.096 23.1307 32.072 27.824C31.048 32.432 30.0667 36.9973 29.128 41.52C28.2747 46.0427 27.464 50.1387 26.696 53.808C26.0133 57.4773 25.4587 60.336 25.032 62.384C24.4347 65.6267 23.9653 68.7413 23.624 71.728C23.368 74.6293 23.24 76.464 23.24 77.232C23.24 77.5733 22.8133 77.9147 21.96 78.256C21.1067 78.5973 20.2107 78.896 19.272 79.152C18.3333 79.408 17.6933 79.5787 17.352 79.664C17.1813 80.0907 16.84 80.304 16.328 80.304ZM68.973 49.712C68.5463 49.712 68.333 49.4987 68.333 49.072C68.333 48.816 68.3757 48.6027 68.461 48.432C68.973 47.0667 69.357 45.7867 69.613 44.592C69.9543 43.312 70.125 41.9893 70.125 40.624C70.125 40.112 70.0823 39.4293 69.997 38.576C69.997 37.6373 69.8263 36.784 69.485 36.016C69.229 35.248 68.717 34.864 67.949 34.864C67.6077 34.864 67.309 34.9067 67.053 34.992C66.797 34.992 66.4983 34.992 66.157 34.992C65.3037 34.992 64.877 34.6507 64.877 33.968C64.877 33.6267 65.261 33.328 66.029 33.072C66.8823 32.816 67.7783 32.6027 68.717 32.432C69.6557 32.2613 70.2957 32.176 70.637 32.176C72.7703 32.176 74.093 32.9867 74.605 34.608C75.2023 36.144 75.501 37.7653 75.501 39.472C75.501 41.0933 75.2023 42.8 74.605 44.592C74.093 46.384 73.1117 47.7493 71.661 48.688C71.3197 48.944 70.893 49.2 70.381 49.456C69.869 49.6267 69.3997 49.712 68.973 49.712ZM49.901 78.896C47.4263 78.896 45.677 78.2987 44.653 77.104C43.7143 75.9093 43.245 74.16 43.245 71.856C43.245 69.296 43.5437 66.736 44.141 64.176C44.7383 61.616 45.4637 59.1413 46.317 56.752L45.165 57.136C44.7383 56.88 44.525 56.4533 44.525 55.856C44.525 55.088 44.8663 54.3627 45.549 53.68C46.317 52.912 47.085 52.4853 47.853 52.4C48.365 51.12 49.0903 49.456 50.029 47.408C50.9677 45.36 52.0343 43.312 53.229 41.264C54.509 39.216 55.917 37.5093 57.453 36.144C58.989 34.7787 60.653 34.096 62.445 34.096C63.213 34.096 63.597 34.4373 63.597 35.12C63.597 35.376 63.4263 35.7173 63.085 36.144C62.7437 36.4853 62.4877 36.7413 62.317 36.912C61.2077 37.936 60.141 39.3867 59.117 41.264C58.093 43.056 57.1543 44.9333 56.301 46.896C55.4477 48.7733 54.7223 50.4373 54.125 51.888C56.5143 51.5467 58.861 51.2907 61.165 51.12C63.5543 50.9493 65.9437 50.864 68.333 50.864C68.589 50.864 69.229 50.9067 70.253 50.992C71.277 50.992 72.429 51.0773 73.709 51.248C74.989 51.3333 76.0557 51.504 76.909 51.76C77.8477 52.016 78.317 52.3573 78.317 52.784C78.317 53.1253 78.1037 53.3387 77.677 53.424C77.3357 53.5093 77.0797 53.552 76.909 53.552C75.7997 53.552 74.733 53.4667 73.709 53.296C72.685 53.1253 71.6183 53.04 70.509 53.04C67.6077 53.04 64.6637 53.2533 61.677 53.68C58.6903 54.1067 55.7463 54.6187 52.845 55.216C51.9917 57.4347 51.1383 59.952 50.285 62.768C49.517 65.584 49.133 68.2293 49.133 70.704C49.133 72.0693 49.389 73.392 49.901 74.672C50.413 75.8667 51.4797 76.464 53.101 76.464C55.405 76.464 57.581 75.568 59.629 73.776C61.7623 71.8987 63.725 69.808 65.517 67.504C67.309 65.1147 68.8023 63.152 69.997 61.616H70.125C70.4663 61.616 70.637 61.7867 70.637 62.128C70.7223 62.4693 70.765 62.7253 70.765 62.896C70.765 64.3467 70.4237 65.712 69.741 66.992C69.0583 68.1867 68.205 69.296 67.181 70.32C64.877 72.4533 62.2317 74.416 59.245 76.208C56.3437 78 53.229 78.896 49.901 78.896ZM80.676 80.304C79.9933 80.304 79.5667 80.048 79.396 79.536C79.7373 78.768 80.0787 78 80.42 77.232C80.7613 76.464 81.06 75.6533 81.316 74.8C82.852 70.2773 84.2173 65.712 85.412 61.104C86.692 56.496 87.9293 51.888 89.124 47.28L90.148 43.312C90.148 43.056 89.8493 42.9707 89.252 43.056C88.6547 43.056 88.3133 42.928 88.228 42.672C88.8253 41.136 89.3373 39.6 89.764 38.064C90.276 36.4427 90.8307 34.864 91.428 33.328C91.684 32.6453 92.4947 32.0053 93.86 31.408C95.2253 30.8107 96.2493 30.512 96.932 30.512C98.1267 30.512 98.724 31.0667 98.724 32.176C98.724 32.7733 98.4253 34.0107 97.828 35.888C97.316 37.68 96.6333 39.8133 95.78 42.288C95.012 44.6773 94.1587 47.152 93.22 49.712C92.3667 52.1867 91.556 54.4907 90.788 56.624C90.1053 58.672 89.5933 60.2507 89.252 61.36C90.788 58.288 92.6227 54.96 94.756 51.376C96.8893 47.792 99.236 44.3787 101.796 41.136C104.356 37.8933 107.087 35.3333 109.988 33.456C110.927 32.8587 111.78 32.56 112.548 32.56C114.34 32.56 115.663 33.4987 116.516 35.376C117.369 37.168 117.796 38.7893 117.796 40.24C117.796 40.752 117.668 41.5627 117.412 42.672C117.156 43.696 116.772 44.6773 116.26 45.616C115.833 46.4693 115.279 46.896 114.596 46.896C114.084 46.896 113.743 46.512 113.572 45.744C113.401 44.8907 113.231 43.952 113.06 42.928C112.889 41.8187 112.591 40.88 112.164 40.112C111.737 39.2587 111.055 38.832 110.116 38.832C108.751 38.832 107.215 39.6853 105.508 41.392C103.801 43.0133 102.052 45.104 100.26 47.664C98.468 50.224 96.7187 52.9547 95.012 55.856C93.3907 58.672 91.94 61.2747 90.66 63.664C89.4653 66.0533 88.612 67.888 88.1 69.168C88.1853 69.424 88.228 69.808 88.228 70.32C88.228 71.2587 88.0147 72.368 87.588 73.648C87.2467 74.8427 86.8627 75.9093 86.436 76.848C86.436 77.36 86.052 77.872 85.284 78.384C84.6013 78.896 83.7907 79.3227 82.852 79.664C81.9133 80.0907 81.188 80.304 80.676 80.304ZM117.676 80.304C116.993 80.304 116.567 80.048 116.396 79.536C116.737 78.768 117.079 78 117.42 77.232C117.761 76.464 118.06 75.6533 118.316 74.8C119.852 70.2773 121.217 65.712 122.412 61.104C123.692 56.496 124.929 51.888 126.124 47.28L127.148 43.312C127.148 43.056 126.849 42.9707 126.252 43.056C125.655 43.056 125.313 42.928 125.228 42.672C125.825 41.136 126.337 39.6 126.764 38.064C127.276 36.4427 127.831 34.864 128.428 33.328C128.684 32.6453 129.495 32.0053 130.86 31.408C132.225 30.8107 133.249 30.512 133.932 30.512C135.127 30.512 135.724 31.0667 135.724 32.176C135.724 32.7733 135.425 34.0107 134.828 35.888C134.316 37.68 133.633 39.8133 132.78 42.288C132.012 44.6773 131.159 47.152 130.22 49.712C129.367 52.1867 128.556 54.4907 127.788 56.624C127.105 58.672 126.593 60.2507 126.252 61.36C127.788 58.288 129.623 54.96 131.756 51.376C133.889 47.792 136.236 44.3787 138.796 41.136C141.356 37.8933 144.087 35.3333 146.988 33.456C147.927 32.8587 148.78 32.56 149.548 32.56C151.34 32.56 152.663 33.4987 153.516 35.376C154.369 37.168 154.796 38.7893 154.796 40.24C154.796 40.752 154.668 41.5627 154.412 42.672C154.156 43.696 153.772 44.6773 153.26 45.616C152.833 46.4693 152.279 46.896 151.596 46.896C151.084 46.896 150.743 46.512 150.572 45.744C150.401 44.8907 150.231 43.952 150.06 42.928C149.889 41.8187 149.591 40.88 149.164 40.112C148.737 39.2587 148.055 38.832 147.116 38.832C145.751 38.832 144.215 39.6853 142.508 41.392C140.801 43.0133 139.052 45.104 137.26 47.664C135.468 50.224 133.719 52.9547 132.012 55.856C130.391 58.672 128.94 61.2747 127.66 63.664C126.465 66.0533 125.612 67.888 125.1 69.168C125.185 69.424 125.228 69.808 125.228 70.32C125.228 71.2587 125.015 72.368 124.588 73.648C124.247 74.8427 123.863 75.9093 123.436 76.848C123.436 77.36 123.052 77.872 122.284 78.384C121.601 78.896 120.791 79.3227 119.852 79.664C118.913 80.0907 118.188 80.304 117.676 80.304ZM189.236 78.896C186.847 78.896 185.055 78.0427 183.86 76.336C182.665 74.6293 181.855 72.6667 181.428 70.448C181.087 68.144 180.916 66.096 180.916 64.304C180.916 62.512 181.001 60.7627 181.172 59.056C181.428 57.264 181.684 55.5147 181.94 53.808C181.087 54.9173 179.892 56.496 178.356 58.544C176.82 60.5067 175.071 62.6827 173.108 65.072C171.145 67.376 169.14 69.5947 167.092 71.728C165.044 73.776 163.039 75.4827 161.076 76.848C159.199 78.128 157.577 78.768 156.212 78.768C155.017 78.768 154.249 78.2133 153.908 77.104C153.652 75.9947 153.524 75.0133 153.524 74.16C153.524 70.32 154.292 66.2667 155.828 62C157.364 57.7333 158.943 53.8933 160.564 50.48C160.991 49.5413 161.631 48.2613 162.484 46.64C163.337 45.0187 164.319 43.3547 165.428 41.648C166.623 39.9413 167.86 38.5333 169.14 37.424C170.42 36.3147 171.7 35.8453 172.98 36.016C173.919 35.4187 174.815 34.9067 175.668 34.48C176.607 33.968 177.631 33.712 178.74 33.712C179.423 33.712 180.532 33.9253 182.068 34.352C183.689 34.7787 184.841 35.0773 185.524 35.248C185.865 34.5653 186.377 34.0533 187.06 33.712C187.743 33.3707 188.425 33.2 189.108 33.2C189.791 33.2 190.26 33.2427 190.516 33.328C190.857 33.1573 191.113 33.072 191.284 33.072C191.796 33.072 192.137 33.456 192.308 34.224C192.479 34.9067 192.564 35.4613 192.564 35.888C192.564 36.9973 192.436 37.9787 192.18 38.832C191.924 39.6853 191.583 40.624 191.156 41.648C190.815 42.5013 190.516 43.312 190.26 44.08C190.089 44.7627 189.62 45.4027 188.852 46C188.255 49.072 187.785 52.1867 187.444 55.344C187.188 58.416 187.06 61.5307 187.06 64.688C187.06 65.7973 187.103 67.12 187.188 68.656C187.359 70.192 187.743 71.5573 188.34 72.752C189.023 73.9467 190.047 74.544 191.412 74.544C193.545 74.544 195.423 73.776 197.044 72.24C198.751 70.6187 200.159 69.0827 201.268 67.632C201.439 67.376 201.652 67.12 201.908 66.864C202.164 66.5227 202.463 66.2667 202.804 66.096L203.188 66.864C203.188 67.7173 202.761 68.7413 201.908 69.936C201.055 71.1307 200.116 72.2827 199.092 73.392C198.068 74.416 197.215 75.184 196.532 75.696C195.508 76.5493 194.356 77.3173 193.076 78C191.881 78.5973 190.601 78.896 189.236 78.896ZM160.564 73.52C161.076 73.52 161.631 73.3067 162.228 72.88C162.825 72.4533 163.295 72.0693 163.636 71.728C167.647 68.2293 171.188 64.304 174.26 59.952C177.417 55.6 180.148 51.0773 182.452 46.384C182.708 45.9573 182.964 45.488 183.22 44.976C183.476 44.464 183.647 43.952 183.732 43.44C183.903 42.7573 184.073 42.032 184.244 41.264C184.415 40.4107 184.543 39.6427 184.628 38.96C184.543 38.5333 184.073 38.1493 183.22 37.808C182.367 37.4667 181.428 37.2107 180.404 37.04C179.465 36.784 178.783 36.656 178.356 36.656C176.735 36.656 175.284 37.3387 174.004 38.704C172.809 39.984 171.785 41.2213 170.932 42.416C169.908 43.952 168.713 45.9573 167.348 48.432C166.068 50.9067 164.788 53.552 163.508 56.368C162.313 59.0987 161.289 61.744 160.436 64.304C159.668 66.864 159.284 69.04 159.284 70.832C159.284 71.2587 159.327 71.8133 159.412 72.496C159.583 73.1787 159.967 73.52 160.564 73.52ZM204.504 78.768C202.968 78.768 202.2 78.128 202.2 76.848C202.2 75.824 202.883 74.9707 204.248 74.288C205.699 73.52 207.405 72.88 209.368 72.368C211.416 71.856 213.336 71.472 215.128 71.216C216.92 70.96 218.2 70.7893 218.968 70.704C219.395 70.2773 219.736 69.808 219.992 69.296C220.248 68.6987 220.376 68.1013 220.376 67.504C220.376 66.8213 220.163 66.2667 219.736 65.84C219.395 65.328 218.925 64.9013 218.328 64.56C216.792 63.6213 214.872 62.384 212.568 60.848C210.264 59.312 208.216 57.6053 206.424 55.728C204.717 53.7653 203.864 51.76 203.864 49.712C203.864 48.5173 204.163 47.5787 204.76 46.896C206.296 44.9333 208.259 42.7573 210.648 40.368C213.123 37.8933 215.768 35.8027 218.584 34.096C221.485 32.304 224.259 31.408 226.904 31.408C229.293 31.408 230.744 31.792 231.256 32.56C231.768 33.328 232.024 34.7787 232.024 36.912C232.024 38.3627 231.768 39.984 231.256 41.776C230.744 43.4827 229.677 44.6773 228.056 45.36H227.8C227.544 45.36 227.373 44.976 227.288 44.208C227.288 43.3547 227.288 42.5867 227.288 41.904C227.288 41.392 227.288 40.624 227.288 39.6C227.288 38.576 227.075 37.6373 226.648 36.784C226.221 35.8453 225.411 35.376 224.216 35.376C223.021 35.376 221.613 35.76 219.992 36.528C218.371 37.2107 216.749 38.192 215.128 39.472C213.592 40.6667 212.312 41.9467 211.288 43.312C210.264 44.6773 209.752 46 209.752 47.28C209.752 49.4133 210.52 51.2053 212.056 52.656C213.677 54.1067 215.555 55.3867 217.688 56.496C219.821 57.6053 221.656 58.7573 223.192 59.952C224.813 61.1467 225.624 62.5547 225.624 64.176C225.624 65.3707 225.325 66.5227 224.728 67.632C224.131 68.656 223.448 69.5947 222.68 70.448C223.533 70.3627 224.387 70.32 225.24 70.32C226.179 70.2347 227.075 70.192 227.928 70.192C228.696 70.192 229.08 70.4053 229.08 70.832C229.08 71.2587 228.952 71.5573 228.696 71.728C228.44 71.8133 228.099 71.8987 227.672 71.984C226.392 72.1547 225.069 72.3253 223.704 72.496C222.424 72.6667 221.144 72.88 219.864 73.136C217.475 75.2693 215.128 76.7627 212.824 77.616C210.52 78.384 207.747 78.768 204.504 78.768ZM238.754 78.768C237.218 78.768 236.45 78.128 236.45 76.848C236.45 75.824 237.133 74.9707 238.498 74.288C239.949 73.52 241.655 72.88 243.618 72.368C245.666 71.856 247.586 71.472 249.378 71.216C251.17 70.96 252.45 70.7893 253.218 70.704C253.645 70.2773 253.986 69.808 254.242 69.296C254.498 68.6987 254.626 68.1013 254.626 67.504C254.626 66.8213 254.413 66.2667 253.986 65.84C253.645 65.328 253.175 64.9013 252.578 64.56C251.042 63.6213 249.122 62.384 246.818 60.848C244.514 59.312 242.466 57.6053 240.674 55.728C238.967 53.7653 238.114 51.76 238.114 49.712C238.114 48.5173 238.413 47.5787 239.01 46.896C240.546 44.9333 242.509 42.7573 244.898 40.368C247.373 37.8933 250.018 35.8027 252.834 34.096C255.735 32.304 258.509 31.408 261.154 31.408C263.543 31.408 264.994 31.792 265.506 32.56C266.018 33.328 266.274 34.7787 266.274 36.912C266.274 38.3627 266.018 39.984 265.506 41.776C264.994 43.4827 263.927 44.6773 262.306 45.36H262.05C261.794 45.36 261.623 44.976 261.538 44.208C261.538 43.3547 261.538 42.5867 261.538 41.904C261.538 41.392 261.538 40.624 261.538 39.6C261.538 38.576 261.325 37.6373 260.898 36.784C260.471 35.8453 259.661 35.376 258.466 35.376C257.271 35.376 255.863 35.76 254.242 36.528C252.621 37.2107 250.999 38.192 249.378 39.472C247.842 40.6667 246.562 41.9467 245.538 43.312C244.514 44.6773 244.002 46 244.002 47.28C244.002 49.4133 244.77 51.2053 246.306 52.656C247.927 54.1067 249.805 55.3867 251.938 56.496C254.071 57.6053 255.906 58.7573 257.442 59.952C259.063 61.1467 259.874 62.5547 259.874 64.176C259.874 65.3707 259.575 66.5227 258.978 67.632C258.381 68.656 257.698 69.5947 256.93 70.448C257.783 70.3627 258.637 70.32 259.49 70.32C260.429 70.2347 261.325 70.192 262.178 70.192C262.946 70.192 263.33 70.4053 263.33 70.832C263.33 71.2587 263.202 71.5573 262.946 71.728C262.69 71.8133 262.349 71.8987 261.922 71.984C260.642 72.1547 259.319 72.3253 257.954 72.496C256.674 72.6667 255.394 72.88 254.114 73.136C251.725 75.2693 249.378 76.7627 247.074 77.616C244.77 78.384 241.997 78.768 238.754 78.768ZM304.236 78.896C301.847 78.896 300.055 78.0427 298.86 76.336C297.665 74.6293 296.855 72.6667 296.428 70.448C296.087 68.144 295.916 66.096 295.916 64.304C295.916 62.512 296.001 60.7627 296.172 59.056C296.428 57.264 296.684 55.5147 296.94 53.808C296.087 54.9173 294.892 56.496 293.356 58.544C291.82 60.5067 290.071 62.6827 288.108 65.072C286.145 67.376 284.14 69.5947 282.092 71.728C280.044 73.776 278.039 75.4827 276.076 76.848C274.199 78.128 272.577 78.768 271.212 78.768C270.017 78.768 269.249 78.2133 268.908 77.104C268.652 75.9947 268.524 75.0133 268.524 74.16C268.524 70.32 269.292 66.2667 270.828 62C272.364 57.7333 273.943 53.8933 275.564 50.48C275.991 49.5413 276.631 48.2613 277.484 46.64C278.337 45.0187 279.319 43.3547 280.428 41.648C281.623 39.9413 282.86 38.5333 284.14 37.424C285.42 36.3147 286.7 35.8453 287.98 36.016C288.919 35.4187 289.815 34.9067 290.668 34.48C291.607 33.968 292.631 33.712 293.74 33.712C294.423 33.712 295.532 33.9253 297.068 34.352C298.689 34.7787 299.841 35.0773 300.524 35.248C300.865 34.5653 301.377 34.0533 302.06 33.712C302.743 33.3707 303.425 33.2 304.108 33.2C304.791 33.2 305.26 33.2427 305.516 33.328C305.857 33.1573 306.113 33.072 306.284 33.072C306.796 33.072 307.137 33.456 307.308 34.224C307.479 34.9067 307.564 35.4613 307.564 35.888C307.564 36.9973 307.436 37.9787 307.18 38.832C306.924 39.6853 306.583 40.624 306.156 41.648C305.815 42.5013 305.516 43.312 305.26 44.08C305.089 44.7627 304.62 45.4027 303.852 46C303.255 49.072 302.785 52.1867 302.444 55.344C302.188 58.416 302.06 61.5307 302.06 64.688C302.06 65.7973 302.103 67.12 302.188 68.656C302.359 70.192 302.743 71.5573 303.34 72.752C304.023 73.9467 305.047 74.544 306.412 74.544C308.545 74.544 310.423 73.776 312.044 72.24C313.751 70.6187 315.159 69.0827 316.268 67.632C316.439 67.376 316.652 67.12 316.908 66.864C317.164 66.5227 317.463 66.2667 317.804 66.096L318.188 66.864C318.188 67.7173 317.761 68.7413 316.908 69.936C316.055 71.1307 315.116 72.2827 314.092 73.392C313.068 74.416 312.215 75.184 311.532 75.696C310.508 76.5493 309.356 77.3173 308.076 78C306.881 78.5973 305.601 78.896 304.236 78.896ZM275.564 73.52C276.076 73.52 276.631 73.3067 277.228 72.88C277.825 72.4533 278.295 72.0693 278.636 71.728C282.647 68.2293 286.188 64.304 289.26 59.952C292.417 55.6 295.148 51.0773 297.452 46.384C297.708 45.9573 297.964 45.488 298.22 44.976C298.476 44.464 298.647 43.952 298.732 43.44C298.903 42.7573 299.073 42.032 299.244 41.264C299.415 40.4107 299.543 39.6427 299.628 38.96C299.543 38.5333 299.073 38.1493 298.22 37.808C297.367 37.4667 296.428 37.2107 295.404 37.04C294.465 36.784 293.783 36.656 293.356 36.656C291.735 36.656 290.284 37.3387 289.004 38.704C287.809 39.984 286.785 41.2213 285.932 42.416C284.908 43.952 283.713 45.9573 282.348 48.432C281.068 50.9067 279.788 53.552 278.508 56.368C277.313 59.0987 276.289 61.744 275.436 64.304C274.668 66.864 274.284 69.04 274.284 70.832C274.284 71.2587 274.327 71.8133 274.412 72.496C274.583 73.1787 274.967 73.52 275.564 73.52Z" fill="#7D0D07"/>
</svg>
